<?xml version="1.0" encoding="UTF-8"?>
<svg width="30px" height="30px" viewBox="0 0 30 30" version="1.1" xmlns="http://www.w3.org/2000/svg" xmlns:xlink="http://www.w3.org/1999/xlink">
    <title>31F55EE2-8C62-4DC8-B9FD-E7D49A2F9443</title>
    <g id="Portofolio" stroke="none" stroke-width="1" fill="none" fill-rule="evenodd">
        <g id="01.1-Proyek-Bilateral" transform="translate(-1038.000000, -296.000000)">
            <g id="Group-7" transform="translate(265.000000, 275.000000)">
                <g id="Group-3-Copy" transform="translate(757.000000, 0.000000)">
                    <g id="ic/notes-copy" transform="translate(16.000000, 21.000000)">
                        <rect id="Rectangle" fill="#FFFFFF" x="0" y="0" width="30" height="30"></rect>
                        <path d="M7.65,17.6295322 C9.53143652,18.6631871 11.8362635,18.8733539 14.5644809,18.2600324 C18.3738068,17.4036706 21.4023132,15.5268372 23.65,12.6295322 L23.65,20.8786565 L21.2161483,21.4449447 L21.2161483,25.6295322 L7.65,25.6295322 L7.65,17.6295322 Z" id="Rectangle" fill-opacity="0.8" fill="#70BF4E"></path>
                        <path d="M22.7865169,3.35 L10.8539326,3.35 C8.4369547,3.35 6.46557787,5.25264887 6.35490081,7.6418904 L6.35,7.85393258 L6.35,23.6292135 C6.35,25.383985 7.7231723,26.8176666 9.45371314,26.9144547 L9.64044944,26.9196629 L22.7865169,26.9196629 C23.2623195,26.9196629 23.65,26.53225 23.65,26.0561798 C23.65,25.6167304 23.3196687,25.2528232 22.8946168,25.1994378 L22.7865169,25.1926966 L21.8297753,25.1926966 L21.8297753,22.0657303 L22.7912477,22.0657396 C23.2295256,22.0625463 23.590393,21.7335556 23.6433177,21.3099783 L23.65,21.2022472 L23.65,4.21348315 C23.65,3.77359727 23.3202995,3.41005944 22.8947624,3.35673342 L22.7865169,3.35 Z M20.102809,22.0657303 L20.102809,25.1926966 L9.64044944,25.1926966 C8.77645847,25.1926966 8.07696629,24.492721 8.07696629,23.6292135 C8.07696629,22.8701808 8.75469043,22.1502882 9.50703155,22.0726428 L9.64044944,22.0657303 L20.102809,22.0657303 Z M21.9230337,5.07696629 L21.9230337,20.338764 L9.64664316,20.3387092 C9.3445071,20.3440568 8.98027089,20.3995748 8.70060032,20.4771289 L8.54411918,20.5260805 L8.07696629,20.692019 L8.07696629,7.85393258 C8.07696629,6.37655621 9.22938193,5.16942293 10.6847137,5.08203223 L10.8539326,5.07696629 L21.9230337,5.07696629 Z M17.9325843,8.20393258 L12.0674157,8.20393258 C11.6268465,8.20393258 11.2638869,8.53322965 11.2106539,8.95907709 L11.2039326,9.06741573 L11.2039326,12.7078652 C11.2039326,13.148188 11.5330022,13.5113561 11.9590246,13.5646227 L12.0674157,13.5713483 L17.9325843,13.5713483 C18.3724701,13.5713483 18.736008,13.2416479 18.789334,12.8161107 L18.7960674,12.7078652 L18.7960674,9.06741573 C18.7960674,8.62752985 18.466367,8.26399203 18.0408298,8.21066601 L17.9325843,8.20393258 Z M17.0691011,9.93089888 L17.0691011,11.844382 L12.9308989,11.844382 L12.9308989,9.93089888 L17.0691011,9.93089888 Z" id="Shape" fill="#1C3682" fill-rule="nonzero"></path>
                    </g>
                </g>
            </g>
        </g>
    </g>
</svg>