<?xml version="1.0" encoding="UTF-8"?>
<svg width="30px" height="30px" viewBox="0 0 30 30" version="1.1" xmlns="http://www.w3.org/2000/svg" xmlns:xlink="http://www.w3.org/1999/xlink">
    <title>468CCDD4-E6DA-414A-8024-FEEA0831C945</title>
    <g id="Portofolio" stroke="none" stroke-width="1" fill="none" fill-rule="evenodd">
        <g id="01.1-Proyek-Bilateral" transform="translate(-785.000000, -421.000000)">
            <g id="Group-7" transform="translate(265.000000, 275.000000)">
                <g id="Group-3-Copy-9" transform="translate(504.000000, 124.000000)">
                    <g id="ic/notes-copy-5" transform="translate(16.000000, 22.000000)">
                        <rect id="Rectangle" fill="#FFFFFF" x="0" y="0" width="30" height="30"></rect>
                        <g id="Group" transform="translate(3.250000, 3.250000)">
                            <path d="M1.52727273,15.6185805 C4.29697831,17.6241697 7.44897193,18.2296992 10.9832536,17.4351692 C15.9180622,16.3257913 19.6751595,13.5611709 22.2545455,9.14130781 L22.2545455,15.861563 C18.1870086,20.3417331 14.9344095,22.5818182 12.4967483,22.5818182 C10.059087,22.5818182 6.40259519,20.5330004 1.52727273,16.435365 L1.52727273,15.6185805 Z" id="Rectangle" fill-opacity="0.8" fill="#70BF4E"></path>
                            <path d="M11.7272727,0.1 C5.31032432,0.1 0.1,5.31032432 0.1,11.7272727 C0.1,18.1442211 5.31032432,23.3545455 11.7272727,23.3545455 C18.1442211,23.3545455 23.3545455,18.1442211 23.3545455,11.7272727 C23.3545455,5.31032432 18.1442211,0.1 11.7272727,0.1 Z M11.7272727,1.75454545 C17.2311243,1.75454545 21.7,6.22342114 21.7,11.7272727 C21.7,17.2311243 17.2311243,21.7 11.7272727,21.7 C6.22276145,21.7 1.75454545,17.2316647 1.75454545,11.7272727 C1.75454545,6.22288079 6.22276145,1.75454545 11.7272727,1.75454545 Z M16.9789147,7.74763071 C16.7152932,7.48400912 16.312024,7.4336941 15.9996016,7.60432018 L15.8991416,7.66938902 L15.8043092,7.75223125 L9.67638341,13.880478 L9.53496204,13.880478 L7.64565242,11.991168 C7.32199024,11.6683336 6.79812783,11.6683336 6.47529303,11.991168 C6.21102503,12.2547601 6.16065204,12.6576585 6.3318107,12.9700412 L6.39707894,13.070501 L6.47569282,13.1605769 L9.02083071,15.7069147 C9.2844523,15.9705363 9.68772148,16.0208514 10.0001439,15.8502253 L10.1006038,15.7851564 L10.1905147,15.7069147 L16.9785775,8.91885242 C17.2425909,8.65416211 17.2929305,8.25117848 17.1220664,7.93817066 L17.0569086,7.83748028 L16.9789147,7.74763071 Z" id="Shape" fill="#1C3682" fill-rule="nonzero"></path>
                        </g>
                    </g>
                </g>
            </g>
        </g>
    </g>
</svg>