<?xml version="1.0" encoding="UTF-8"?>
<svg width="16px" height="16px" viewBox="0 0 16 16" version="1.1" xmlns="http://www.w3.org/2000/svg" xmlns:xlink="http://www.w3.org/1999/xlink">
    <title>ic/export</title>
    <g id="ic/export" stroke="none" stroke-width="1" fill="none" fill-rule="evenodd">
        <path d="M11.2,4.8 L8.8,4.8 L8.8,10.4 C8.8,10.8418278 8.4418278,11.2 8,11.2 C7.5581722,11.2 7.2,10.8418278 7.2,10.4 L7.2,4.8 L7.2,4.8 L4.8,4.8 L8,1.6 L11.2,4.8 Z M1.6,13.6 C1.6,14.0418278 1.9581722,14.4 2.4,14.4 L13.6,14.4 C14.0418278,14.4 14.4,14.0418278 14.4,13.6 C14.4,13.1581722 14.0418278,12.8 13.6,12.8 L2.4,12.8 C1.9581722,12.8 1.6,13.1581722 1.6,13.6 Z" id="Shape" fill="#A9ACBC" fill-rule="nonzero"></path>
    </g>
</svg>