<?xml version="1.0" encoding="UTF-8"?>
<svg width="16px" height="16px" viewBox="0 0 16 16" version="1.1" xmlns="http://www.w3.org/2000/svg" xmlns:xlink="http://www.w3.org/1999/xlink">
    <title>ic/eye</title>
    <g id="ic/eye" stroke="none" stroke-width="1" fill="none" fill-rule="evenodd">
        <path d="M8,3.85454545 C10.7563636,3.85454545 13.2145455,5.40363636 14.4145455,7.85454545 C13.2145455,10.3054545 10.7563636,11.8545455 8,11.8545455 C5.24363636,11.8545455 2.78545455,10.3054545 1.58545455,7.85454545 C2.78545455,5.40363636 5.24363636,3.85454545 8,3.85454545 M8,2.4 C4.36363636,2.4 1.25818182,4.66181818 0,7.85454545 C1.25818182,11.0472727 4.36363636,13.3090909 8,13.3090909 C11.6363636,13.3090909 14.7418182,11.0472727 16,7.85454545 C14.7418182,4.66181818 11.6363636,2.4 8,2.4 Z M8,6.03636364 C9.00363636,6.03636364 9.81818182,6.85090909 9.81818182,7.85454545 C9.81818182,8.85818182 9.00363636,9.67272727 8,9.67272727 C6.99636364,9.67272727 6.18181818,8.85818182 6.18181818,7.85454545 C6.18181818,6.85090909 6.99636364,6.03636364 8,6.03636364" id="Shape" fill="#A9ACBC" fill-rule="nonzero"></path>
    </g>
</svg>