<?xml version="1.0" encoding="UTF-8"?>
<svg width="22px" height="22px" viewBox="0 0 22 22" version="1.1" xmlns="http://www.w3.org/2000/svg" xmlns:xlink="http://www.w3.org/1999/xlink">
    <title>6D72F2BE-CC9C-406B-ABF4-35F13A1D1612</title>
    <g id="Portofolio" stroke="none" stroke-width="1" fill="none" fill-rule="evenodd" opacity="0.5">
        <g id="01.1-Proyek-Bilateral" transform="translate(-16.000000, -154.000000)" fill="#FFFFFF" fill-rule="nonzero">
            <g id="Group-2" transform="translate(0.000000, 76.000000)">
                <g id="Group-Copy" transform="translate(0.000000, 66.000000)">
                    <g id="ic/graph" transform="translate(16.000000, 12.000000)">
                        <g id="Group" transform="translate(3.850000, 2.383333)">
                            <path d="M0.863421986,12.8320071 C0.38656719,12.8320071 -7.42517159e-14,13.2185743 -7.42517159e-14,13.6954291 L-7.42517159e-14,15.972195 C-7.42517159e-14,16.4490498 0.38656719,16.835617 0.863421986,16.835617 C1.34027678,16.835617 1.72684397,16.4490498 1.72684397,15.972195 L1.72684397,13.6954291 C1.72684397,13.2185743 1.34027678,12.8320071 0.863421986,12.8320071 Z" id="Path"></path>
                            <path d="M6.93479787,9.79631915 C6.45794308,9.79631915 6.07137589,10.1828863 6.07137589,10.6597411 L6.07137589,15.972195 C6.07137589,16.4490498 6.45794308,16.835617 6.93479787,16.835617 C7.41165267,16.835617 7.79821986,16.4490498 7.79821986,15.972195 L7.79821986,10.6597411 C7.79821986,10.1828863 7.41165267,9.79631915 6.93479787,9.79631915 Z" id="Path"></path>
                            <path d="M13.0061738,7.51955319 C12.529319,7.51955319 12.1427518,7.90612038 12.1427518,8.38297518 L12.1427518,15.972195 C12.1427518,16.4490498 12.529319,16.835617 13.0061738,16.835617 C13.4830286,16.835617 13.8695957,16.4490498 13.8695957,15.972195 L13.8695957,8.38297518 C13.8695957,7.90612038 13.4830286,7.51955319 13.0061738,7.51955319 Z" id="Path"></path>
                            <path d="M13.006349,2.35130434e-14 L9.97048582,2.35130434e-14 C9.53210686,2.35130434e-14 9.17673051,0.355376363 9.17673051,0.793755319 L9.18138816,0.880243705 C9.22448292,1.27793834 9.56133212,1.58751063 9.97048581,1.58751064 L11.08954,1.58700667 L6.93462,5.74192667 L4.46031354,3.26826941 C4.15033655,2.95838602 3.6478892,2.95838013 3.3379398,3.26823594 L0.303931138,6.30221484 C0.000997728904,6.61582706 0.00529975225,7.11089693 0.311478007,7.41707518 L0.379774093,7.47800512 C0.687092401,7.72206877 1.13452013,7.70650047 1.42244407,7.42844912 L3.89854667,4.95121 L6.37359426,7.42630506 L6.44282358,7.48796563 C6.75436731,7.73460836 7.20815784,7.71406178 7.495968,7.42633853 L12.21187,2.71003333 L12.2124184,3.82944326 C12.2124184,4.26782222 12.5677948,4.62319858 13.0061738,4.62319858 C13.4445527,4.62319858 13.7999292,4.26782221 13.7999292,3.82944326 L13.7999292,0.793917308 C13.7995558,0.472671311 13.60586,0.183624708 13.3087658,0.0608196012 C13.2134966,0.0208964576 13.1103937,0.000104745353 13.006349,2.35130434e-14 Z" id="Path"></path>
                        </g>
                    </g>
                </g>
            </g>
        </g>
    </g>
</svg>