<?xml version="1.0" encoding="UTF-8"?>
<svg width="22px" height="22px" viewBox="0 0 22 22" version="1.1" xmlns="http://www.w3.org/2000/svg" xmlns:xlink="http://www.w3.org/1999/xlink">
    <title>7FA917A4-062C-4BD9-A5EE-FD5E8437E872</title>
    <g id="Portofolio" stroke="none" stroke-width="1" fill="none" fill-rule="evenodd">
        <g id="01.1-Proyek-Bilateral" transform="translate(-16.000000, -200.000000)" fill="#FFFFFF" fill-rule="nonzero">
            <g id="Group-2" transform="translate(0.000000, 76.000000)">
                <g id="Group-Copy-2" transform="translate(0.000000, 112.000000)">
                    <g id="ic/handshake" transform="translate(16.000000, 12.000000)">
                        <path d="M7.07252801,4.89226897 C8.11174421,4.59593744 9.22936094,4.83190436 10.0584522,5.51608092 L10.1869102,5.62782128 L10.6753597,6.0646393 L10.9666495,5.85839759 C12.1676653,5.04559876 13.652307,4.77959725 15.0540333,5.11491875 L15.2536763,5.16691834 L15.4519537,5.22713453 L18.1165711,6.10829929 L19.7245356,5.046967 L19.8307352,4.98890491 C20.1815688,4.81864656 20.591474,4.81606244 20.9511644,4.9867019 C21.3382578,5.18843025 21.5927775,5.57659502 21.6289018,6.00868253 L21.6333333,6.11753699 L21.6333333,11.9425639 L21.6265597,12.0670084 L21.6103613,12.1792688 C21.5568619,12.4587012 21.4118076,12.7124213 21.1971081,12.902303 L21.1008939,12.9796612 L19.6563242,13.9802019 L19.5178561,14.0711699 L19.3816121,14.1466014 C19.1394929,14.2688358 18.8759784,14.3426536 18.6058628,14.3642404 L18.4431196,14.3708942 L18.3609262,14.3706001 L18.330054,14.4732792 L18.281962,14.6119638 C18.169814,14.8987437 17.9905651,15.1545889 17.7579515,15.3595888 L17.6372613,15.4577595 L12.5554394,19.0884738 L12.3839006,19.1971971 C11.904715,19.4802889 11.3615448,19.6370271 10.8021737,19.6523699 C10.3616106,19.6579792 9.92874118,19.5378652 9.54832988,19.3033688 L9.40822205,19.2100931 L8.83671078,18.7450494 L8.71650799,18.7710295 L8.53906818,18.8112016 C7.74106888,18.9694193 6.9474159,18.8290625 6.29598133,18.4164631 L6.15861527,18.3238915 L2.50336104,15.7904034 L2.39738618,15.7087464 L2.30889374,15.6256405 C2.12752424,15.4376269 2.00751739,15.1975448 1.96586715,14.9369028 C1.91875731,14.625896 1.98575163,14.3091856 2.15794398,14.0374468 L2.22742988,13.9377518 L2.23348952,13.9311835 L0.896175158,12.9723175 L0.798410897,12.8944043 L0.716278133,12.8155947 C0.519512006,12.6083377 0.398589256,12.3404508 0.372155847,12.0570242 L0.366666667,11.9347358 L0.367103698,6.10535066 L0.376064047,5.9895904 L0.395386049,5.87491193 C0.475489467,5.50801053 0.71651123,5.19345559 1.0538168,5.01941895 C1.44362126,4.82187485 1.90480315,4.83685005 2.2800143,5.05332463 L2.38009489,5.11735073 L3.74728443,6.10117529 L3.78107033,6.12091125 L3.82122331,6.13202234 L3.84512115,6.13467005 L3.87588707,6.13373945 L3.934031,6.10781597 L6.7521161,5.00180059 L6.91407864,4.94187598 L7.07252801,4.89226897 Z M7.46846136,6.39272223 L7.34302362,6.43672149 L4.51966102,7.55180228 L4.39065228,7.59634247 L4.25696378,7.63105368 C3.82538179,7.72421634 3.37454841,7.64680862 3.00007315,7.41797023 L2.89011692,7.34479493 L1.93420733,6.66813302 L1.91589831,11.7397337 L3.51230468,12.9277079 L3.63059309,12.8990618 L3.80404747,12.85339 C4.64013264,12.6564266 5.48548253,12.7860548 6.18183867,13.2160828 L6.32871965,13.3128201 L9.97693617,15.8463799 L10.0832185,15.9295628 L10.1721208,16.0143487 C10.3540534,16.205904 10.4735369,16.4497883 10.5133189,16.7123552 C10.5605258,17.0239791 10.4936349,17.3407823 10.3140743,17.6201945 L10.2414605,17.7231382 L10.1394685,17.8197393 L10.3082152,17.972104 L10.3834516,18.0209435 L10.4631586,18.0601345 C10.7793261,18.1947585 11.1873752,18.1102255 11.6624365,17.8034865 L11.7825836,17.7221707 L16.7475381,14.1749821 L16.795683,14.124341 C16.8433174,14.065605 16.8726611,13.9948825 16.8795812,13.931626 C16.8833131,13.8302845 16.8535494,13.7353409 16.7972965,13.6603413 L16.7502497,13.6080428 L15.8395632,12.7961578 L13.5456519,10.7292162 L12.3437871,11.6818525 L12.2043321,11.7884368 L12.0651323,11.88477 C10.7117703,12.7745509 8.92196726,12.6461199 7.70692346,11.5645301 C7.3183055,11.2189674 7.09356594,10.7255052 7.08798987,10.205536 C7.0829208,9.7328455 7.25940064,9.27816173 7.57739519,8.93401247 L7.67699897,8.83417626 L9.51625739,7.11036646 L9.16200608,6.77286871 L9.06807198,6.69285754 L8.96917096,6.61994218 L8.85914289,6.55064323 C8.47932041,6.33035782 8.03254868,6.26270665 7.60875246,6.35574641 L7.46846136,6.39272223 Z M3.60090652,14.7071004 L3.58624499,14.7191759 L7.01937117,17.0830605 L7.11640307,17.1439659 L7.22442056,17.2001087 C7.74156086,17.4433048 8.35084614,17.3656139 8.78948091,17.006902 L8.80572627,16.9916079 L5.41607911,14.6223957 L5.31766699,14.5585495 L5.2146044,14.5026755 L5.09998074,14.4523467 C4.63014791,14.2688392 4.10219233,14.3397799 3.69899963,14.629998 L3.60090652,14.7071004 Z M11.5063221,7.40224986 L11.3724526,7.52084087 L8.70471202,10.0242562 L8.67498333,10.0667713 C8.64928847,10.1109203 8.63746018,10.1610449 8.64115008,10.2268771 C8.63959618,10.3000495 8.67508123,10.3777003 8.73824655,10.4321741 C9.45017621,11.0649943 10.5007854,11.117069 11.2709376,10.5734806 L11.3789846,10.4917714 L12.8642129,9.30386213 L12.9697022,9.22907387 L13.0704929,9.17290611 C13.2212792,9.09940342 13.3877011,9.06105399 13.5567143,9.06127701 C13.793521,9.062118 14.0232884,9.13671826 14.2074572,9.267322 L14.2955632,9.33720863 L14.5050769,9.49381986 L17.7852669,12.4304425 L18.081707,12.6927201 L18.13194,12.7345462 L18.1990559,12.7757708 C18.3560749,12.8582471 18.5424015,12.8573269 18.6975675,12.7757642 L18.7619832,12.7358795 L20.0404274,11.8228285 L20.082679,6.6808085 L18.3815409,7.90466351 L14.9686729,6.72842861 L14.8046673,6.67911481 L14.6343592,6.63668249 C13.5891008,6.40268137 12.4984275,6.6443029 11.6529243,7.28504936 L11.5063221,7.40224986 Z" id="Shape"></path>
                    </g>
                </g>
            </g>
        </g>
    </g>
</svg>