<?xml version="1.0" encoding="UTF-8"?>
<svg width="16px" height="16px" viewBox="0 0 16 16" version="1.1" xmlns="http://www.w3.org/2000/svg" xmlns:xlink="http://www.w3.org/1999/xlink">
    <title>ic/import</title>
    <g id="ic/import" stroke="none" stroke-width="1" fill="none" fill-rule="evenodd">
        <path d="M11.2,8 L8.8,8 L8.8,2.4 C8.8,1.9581722 8.4418278,1.6 8,1.6 C7.5581722,1.6 7.2,1.9581722 7.2,2.4 L7.2,8 L7.2,8 L4.8,8 L8,11.2 L11.2,8 Z M1.6,13.6 C1.6,14.0418278 1.9581722,14.4 2.4,14.4 L13.6,14.4 C14.0418278,14.4 14.4,14.0418278 14.4,13.6 C14.4,13.1581722 14.0418278,12.8 13.6,12.8 L2.4,12.8 C1.9581722,12.8 1.6,13.1581722 1.6,13.6 Z" id="Shape" fill="#A9ACBC" fill-rule="nonzero"></path>
    </g>
</svg>