<?xml version="1.0" encoding="UTF-8"?>
<svg width="30px" height="30px" viewBox="0 0 30 30" version="1.1" xmlns="http://www.w3.org/2000/svg" xmlns:xlink="http://www.w3.org/1999/xlink">
    <title>00635693-4DCB-4F92-9403-187116A35458</title>
    <g id="Portofolio" stroke="none" stroke-width="1" fill="none" fill-rule="evenodd">
        <g id="01.1-Proyek-Bilateral" transform="translate(-281.000000, -421.000000)">
            <g id="Group-7" transform="translate(265.000000, 275.000000)">
                <g id="Group-3-Copy-2" transform="translate(0.000000, 124.000000)">
                    <g id="ic/notes-copy-3" transform="translate(16.000000, 22.000000)">
                        <rect id="Rectangle" fill="#FFFFFF" x="0" y="0" width="30" height="30"></rect>
                        <g id="Group" transform="translate(5.000000, 3.000000)">
                            <path d="M1.45,18.6295322 C3.56661609,19.6631871 6.15954643,19.8733539 9.22879104,19.2600324 C13.5142827,18.4036706 16.9213523,16.5268372 19.45,13.6295322 L19.45,22.6295322 L1.45,22.6295322 L1.45,18.6295322 Z" id="Rectangle" fill-opacity="0.8" fill="#70BF4E"></path>
                            <path d="M9.95,0 C8.55751893,0 7.32468188,0.841536416 6.799156,2.09527447 L6.728951,2.27713764 L6.646443,2.5104432 L2.788054,2.5104432 C2.0482752,2.5104432 1.33909386,2.80396893 0.81631,3.32675278 C0.34105195,3.80201083 0.0552627975,4.43131674 0.007229,5.097615 L2.82440737e-13,5.2984972 L2.82440737e-13,21.616378 C2.82440737e-13,23.0994963 1.15716767,24.3115946 2.618176,24.3993452 L2.788054,24.404432 L17.111946,24.404432 C18.594294,24.404432 19.8071055,23.2468421 19.89491,21.7862088 L19.9,21.616378 L19.9,5.2984972 C19.9,4.55952114 19.6057866,3.85010441 19.082435,3.32675278 C18.6069633,2.85128105 17.978595,2.56566736 17.312719,2.51766711 L17.111946,2.5104432 L13.252301,2.5104432 L13.169793,2.27713764 C12.6911679,0.923743738 11.407702,0 9.95,0 Z M9.95,1.8104432 C10.7861225,1.8104432 11.4747207,2.45214686 11.548651,3.26966639 L11.555222,3.4156648 C11.555222,3.87726834 11.9002002,4.25799381 12.346813,4.31383557 L12.460443,4.3208864 L17.111946,4.3208864 C17.370867,4.3208864 17.6191816,4.42331602 17.802527,4.60666138 C17.9556238,4.75975818 18.052885,4.95782311 18.081053,5.16985213 L18.089557,5.2984972 L18.089557,21.616378 C18.089557,22.1175659 17.7120056,22.5309162 17.225923,22.5874091 L17.111946,22.5939888 L2.788054,22.5939888 C2.28600237,22.5939888 1.87339279,22.2167186 1.81701,21.7304152 L1.810443,21.616378 L1.810443,5.2984972 C1.810443,5.03857727 1.91269002,4.79018936 2.096218,4.60666138 C2.24915798,4.4537214 2.44713984,4.35722654 2.659302,4.32930992 L2.788054,4.3208864 L7.439557,4.3208864 C7.90071023,4.3208864 8.28181695,3.97525322 8.33772,3.52914359 L8.344778,3.4156648 C8.344778,2.52948281 9.06381801,1.8104432 9.95,1.8104432 Z M10.173892,13 L5.726108,13 C5.22652534,13 4.8208864,13.4056389 4.8208864,13.9052216 C4.8208864,14.3663748 5.16651958,14.7474813 5.6126292,14.8033844 L5.726108,14.8104432 L10.173892,14.8104432 C10.6727069,14.8104432 11.079114,14.404317 11.079114,13.9052216 C11.079114,13.4445181 10.7328264,13.0630311 10.28722,13.0070668 L10.173892,13 Z M14.173892,8.4895568 L5.726108,8.4895568 C5.22652534,8.4895568 4.8208864,8.89519574 4.8208864,9.3947784 C4.8208864,9.85593163 5.16651958,10.2370381 5.6126292,10.2929412 L5.726108,10.3 L14.173892,10.3 C14.6727069,10.3 15.079114,9.89387382 15.079114,9.3947784 C15.079114,8.93407494 14.7328264,8.55258787 14.28722,8.4966236 L14.173892,8.4895568 Z" id="Shape" fill="#1C3682" fill-rule="nonzero"></path>
                        </g>
                    </g>
                </g>
            </g>
        </g>
    </g>
</svg>