<?xml version="1.0" encoding="UTF-8"?>
<svg width="22px" height="22px" viewBox="0 0 22 22" version="1.1" xmlns="http://www.w3.org/2000/svg" xmlns:xlink="http://www.w3.org/1999/xlink">
    <title>833C33E8-EE61-454F-8E7E-33CACB51A50E</title>
    <g id="Portofolio" stroke="none" stroke-width="1" fill="none" fill-rule="evenodd" opacity="0.5">
        <g id="01.1-Proyek-Bilateral" transform="translate(-16.000000, -108.000000)" fill="#FFFFFF" fill-rule="nonzero">
            <g id="Group-2" transform="translate(0.000000, 76.000000)">
                <g id="Group" transform="translate(0.000000, 20.000000)">
                    <g id="ic/office" transform="translate(16.000000, 12.000000)">
                        <path d="M10.333408,1.79991675 C10.5850925,1.62003854 10.9160878,1.60203379 11.1835708,1.74588752 L11.2701836,1.79983351 L18.3234438,6.83803191 C18.8079108,7.18360747 19.1238368,7.71296339 19.2018664,8.30371719 L19.2156187,8.4410792 L19.2203748,8.58812883 L19.2164899,8.71758583 C19.1518605,9.83364256 18.2895745,10.7348703 17.1832161,10.8602837 L17.0545077,10.8712796 L16.829277,10.8732854 L16.829277,17.7459483 L18.4249247,17.7463153 L18.5149153,17.7522593 C18.9159653,17.8025321 19.2203748,18.1449086 19.2203748,18.552337 C19.2203748,18.9676994 18.9056165,19.3101486 18.5018219,19.3539624 L18.4140139,19.3586979 L3.17878341,19.3583588 L3.08879286,19.3524147 C2.68774288,19.302142 2.38333333,18.9597655 2.38333333,18.552337 C2.38333333,18.1369746 2.69809167,17.7945254 3.10188628,17.7507116 L3.18969423,17.7459761 L4.77400807,17.7459483 L4.77400807,10.8725827 L4.54062489,10.8709928 C3.46720177,10.8088296 2.59291699,10.0088887 2.41585146,8.96540081 L2.39798212,8.83904486 L2.38699736,8.71054065 L2.38333333,8.57485541 L2.3884008,8.43329028 C2.42891709,7.8442979 2.71018409,7.30038445 3.16325945,6.92770242 L3.27997328,6.83823967 L10.333408,1.79991675 Z M9.99526417,10.8746909 L6.38606211,10.8746909 L6.38606211,17.7459483 L9.99526417,17.7459483 L9.99526417,10.8746909 Z M15.2165203,10.8746909 L11.6080209,10.8746909 L11.6080209,17.7459483 L15.2165203,17.7459483 L15.2165203,10.8746909 Z M10.8012912,3.44757707 L4.22654793,8.14262205 L4.16834668,8.19006892 C4.07650591,8.27503673 4.01808618,8.38718892 4.00103454,8.50384213 L3.9958313,8.5741927 L3.99956981,8.65266934 C4.0318834,8.97066335 4.28278637,9.22091742 4.59571822,9.25753642 L4.67515285,9.26215601 L16.9196886,9.26237991 L16.9981631,9.25864113 C17.3163528,9.22630178 17.566444,8.9751221 17.6032838,8.66897138 L17.6079671,8.5913833 L17.6038706,8.51769901 C17.5892243,8.39589158 17.5326594,8.28326468 17.4458263,8.19926015 L17.3901874,8.15244764 L10.8012912,3.44757707 Z" id="Shape"></path>
                    </g>
                </g>
            </g>
        </g>
    </g>
</svg>