<?xml version="1.0" encoding="UTF-8"?>
<svg width="30px" height="30px" viewBox="0 0 30 30" version="1.1" xmlns="http://www.w3.org/2000/svg" xmlns:xlink="http://www.w3.org/1999/xlink">
    <title>4DC7DD3C-C940-4EA7-B2BD-01F392BAFBD2</title>
    <g id="Portofolio" stroke="none" stroke-width="1" fill="none" fill-rule="evenodd">
        <g id="01.1-Proyek-Bilateral" transform="translate(-533.000000, -296.000000)">
            <g id="Group-7" transform="translate(265.000000, 275.000000)">
                <g id="Group-3-Copy-7" transform="translate(252.000000, 0.000000)">
                    <g id="ic/notes" transform="translate(16.000000, 21.000000)">
                        <rect id="Rectangle" fill="#FFFFFF" x="0" y="0" width="30" height="30"></rect>
                        <path d="M7.65,21.6295322 C9.53143652,22.6631871 11.8362635,22.8733539 14.5644809,22.2600324 C18.3738068,21.4036706 21.4023132,19.5268372 23.65,16.6295322 L23.65,25.6295322 L7.65,25.6295322 L7.65,21.6295322 Z" id="Rectangle" fill-opacity="0.8" fill="#70BF4E"></path>
                        <path d="M16.8,3.35 L7.2,3.35 C6.7669843,3.35 6.40912185,3.67455356 6.35662831,4.093445 L6.35,4.2 L6.35,25.8 C6.35,26.2330157 6.67455356,26.5908782 7.093445,26.6433717 L7.2,26.65 L20.4,26.65 C22.788036,26.65 24.7358061,24.7701349 24.8451579,22.4095031 L24.85,22.2 L24.85,11.4 C24.85,11.2932573 24.8307403,11.1902598 24.7839012,11.0714646 L24.7511365,10.9999982 C24.7261471,10.9541842 24.6978766,10.9113758 24.6677401,10.8731624 L24.6213126,10.8194874 L17.3863335,3.58437444 C17.3487668,3.54851529 17.3090362,3.51685969 17.2584833,3.48426256 L17.193,3.446 L17.105502,3.40617578 L17.0074576,3.37520453 L16.905365,3.35636051 L16.8,3.35 Z M15.95,5.05 L15.95,11.4 C15.95,11.8330157 16.2745536,12.1908782 16.693445,12.2433717 L16.8,12.25 L23.15,12.25 L23.15,22.2 C23.15,23.6630293 22.0087744,24.8584411 20.5675756,24.9449833 L20.4,24.95 L8.05,24.95 L8.05,5.05 L15.95,5.05 Z M18,19.15 L13.2,19.15 C12.7308997,19.15 12.35,19.5308997 12.35,20 C12.35,20.4330157 12.6745536,20.7908782 13.093445,20.8433717 L13.2,20.85 L18,20.85 C18.4691003,20.85 18.85,20.4691003 18.85,20 C18.85,19.5669843 18.5254464,19.2091218 18.106555,19.1566283 L18,19.15 Z M19.2,15.35 L12,15.35 C11.5308997,15.35 11.15,15.7308997 11.15,16.2 C11.15,16.6330157 11.4745536,16.9908782 11.893445,17.0433717 L12,17.05 L19.2,17.05 C19.6691003,17.05 20.05,16.6691003 20.05,16.2 C20.05,15.7669843 19.7254464,15.4091218 19.306555,15.3566283 L19.2,15.35 Z M17.65,10.55 L17.65,6.25182525 L21.9481747,10.55 L17.65,10.55 Z" id="Shape" fill="#1C3682" fill-rule="nonzero"></path>
                    </g>
                </g>
            </g>
        </g>
    </g>
</svg>