<?xml version="1.0" encoding="UTF-8"?>
<svg width="18px" height="18px" viewBox="0 0 18 18" version="1.1" xmlns="http://www.w3.org/2000/svg" xmlns:xlink="http://www.w3.org/1999/xlink">
    <title>ic/edit</title>
    <g id="ic/edit" stroke="none" stroke-width="1" fill="none" fill-rule="evenodd">
        <path d="M10.9369257,2.07684583 C11.183702,1.83014401 11.5709558,1.80958553 11.8411519,2.01517723 L11.911746,2.07685473 L15.5481542,5.71326286 C15.794856,5.9600392 15.8154145,6.34729299 15.6098228,6.61748909 L15.5481453,6.68808319 L7.06322262,15.1730058 C6.95548925,15.2807718 6.81577135,15.3492015 6.66640098,15.369018 L6.57579911,15.375 L2.93939988,15.375 C2.58794292,15.375 2.29791193,15.1120042 2.2553714,14.772077 L2.25,14.6856001 L2.25,11.0492009 C2.25,10.8968628 2.30046879,10.7497108 2.39212917,10.6300769 L2.45199417,10.5617774 L10.9369257,2.07684583 Z M8.77250054,6.19083258 L3.62879976,11.3001124 L3.62833345,13.9966666 L6.265962,14.020608 L11.4333341,8.85166613 L8.77250054,6.19083258 Z M11.4241674,3.53916569 L9.74750062,5.2158325 L12.4091675,7.87749938 L14.0858343,6.20083258 L11.4241674,3.53916569 Z" id="Shape" fill="#42495E" fill-rule="nonzero"></path>
    </g>
</svg>