<?xml version="1.0" encoding="UTF-8"?>
<svg width="16px" height="16px" viewBox="0 0 16 16" version="1.1" xmlns="http://www.w3.org/2000/svg" xmlns:xlink="http://www.w3.org/1999/xlink">
    <title>ic/sort</title>
    <g id="ic/sort" stroke="none" stroke-width="1" fill="none" fill-rule="evenodd">
        <path d="M1.9047619,12.5714286 L4.95238095,12.5714286 C5.37142857,12.5714286 5.71428571,12.2285714 5.71428571,11.8095238 C5.71428571,11.3904762 5.37142857,11.047619 4.95238095,11.047619 L1.9047619,11.047619 C1.48571429,11.047619 1.14285714,11.3904762 1.14285714,11.8095238 C1.14285714,12.2285714 1.48571429,12.5714286 1.9047619,12.5714286 Z M1.14285714,4.19047619 C1.14285714,4.60952381 1.48571429,4.95238095 1.9047619,4.95238095 L14.0952381,4.95238095 C14.5142857,4.95238095 14.8571429,4.60952381 14.8571429,4.19047619 C14.8571429,3.77142857 14.5142857,3.42857143 14.0952381,3.42857143 L1.9047619,3.42857143 C1.48571429,3.42857143 1.14285714,3.77142857 1.14285714,4.19047619 Z M1.9047619,8.76190476 L9.52380952,8.76190476 C9.94285714,8.76190476 10.2857143,8.41904762 10.2857143,8 C10.2857143,7.58095238 9.94285714,7.23809524 9.52380952,7.23809524 L1.9047619,7.23809524 C1.48571429,7.23809524 1.14285714,7.58095238 1.14285714,8 C1.14285714,8.41904762 1.48571429,8.76190476 1.9047619,8.76190476 Z" id="Shape" fill="#A9ACBC" fill-rule="nonzero"></path>
    </g>
</svg>