<?xml version="1.0" encoding="UTF-8"?>
<svg width="16px" height="16px" viewBox="0 0 16 16" version="1.1" xmlns="http://www.w3.org/2000/svg" xmlns:xlink="http://www.w3.org/1999/xlink">
    <title>ic/search_grey</title>
    <g id="ic/search_grey" stroke="none" stroke-width="1" fill="none" fill-rule="evenodd">
        <path d="M6.97608396,0.8 C3.56984218,0.8 0.8,3.56945304 0.8,6.97498875 C0.8,10.3790282 3.57143402,13.1499775 6.97608396,13.1499775 C8.38157874,13.1499775 9.7309703,12.6761888 10.8261378,11.8010896 L10.9407636,11.8079572 L14.0843364,15.00511 C14.2088353,15.1295999 14.3765974,15.2 14.5476721,15.2 C14.7236633,15.2 14.8914131,15.1292936 15.0136136,15.0024376 C15.2634656,14.7527073 15.2622078,14.3365368 15.0093267,14.0836999 L11.8106574,10.8855901 L11.8055335,10.7699593 C12.6741569,9.73221901 13.1521679,8.38701153 13.1521679,6.97498875 C13.1521679,3.56935772 10.3822304,0.8 6.97608396,0.8 Z M6.97299604,2.10949482 C9.65623102,2.10949482 11.8393261,4.29229551 11.8393261,6.97498875 C11.8393261,9.65850995 9.65540493,11.8435701 6.97299604,11.8435701 C4.29067609,11.8435701 2.10666596,9.65859602 2.10666596,6.97498875 C2.10666596,4.29220808 4.2898485,2.10949482 6.97299604,2.10949482 Z" id="Shape" fill="#A9ACBC" fill-rule="nonzero"></path>
    </g>
</svg>