<?xml version="1.0" encoding="UTF-8"?>
<svg width="22px" height="22px" viewBox="0 0 22 22" version="1.1" xmlns="http://www.w3.org/2000/svg" xmlns:xlink="http://www.w3.org/1999/xlink">
    <title>5D4CAD64-A0A8-41C8-9927-2876874CD061</title>
    <g id="Portofolio" stroke="none" stroke-width="1" fill="none" fill-rule="evenodd" opacity="0.5">
        <g id="01.1-Proyek-Bilateral" transform="translate(-16.000000, -246.000000)" fill="#FFFFFF" fill-rule="nonzero">
            <g id="Group-2" transform="translate(0.000000, 76.000000)">
                <g id="Group-Copy-3" transform="translate(0.000000, 158.000000)">
                    <g id="ic/office" transform="translate(16.000000, 12.000000)">
                        <g id="Group" transform="translate(1.466667, 1.466667)">
                            <path d="M9.53333333,0.366666667 C14.5862423,0.366666667 18.7,4.48042434 18.7,9.53333333 C18.7,14.5862423 14.5862423,18.7 9.53333333,18.7 C4.48042434,18.7 0.366666667,14.5862423 0.366666667,9.53333333 C0.366666667,4.48042434 4.48042434,0.366666667 9.53333333,0.366666667 Z M9.53333333,1.93804407 C5.34627301,1.93804407 1.93804407,5.34627301 1.93804407,9.53333333 C1.93804407,13.7203937 5.34627301,17.1286226 9.53333333,17.1286226 C13.7203937,17.1286226 17.1286226,13.7203937 17.1286226,9.53333333 C17.1286226,5.34627301 13.7203937,1.93804407 9.53333333,1.93804407 Z" id="Shape"></path>
                            <path d="M12.7080696,5.24570217 C13.0148928,4.93887898 13.5123416,4.93884678 13.8192045,5.24563024 C14.0664203,5.49278205 14.1172589,5.86846624 13.943031,6.18867114 L13.8899126,6.27448597 L13.8193101,6.35672182 L11.4202,8.75526667 L11.4287845,8.77293757 C11.4867717,8.91653372 11.5282589,9.0665868 11.5521706,9.22063598 L11.5701841,9.37592605 L11.5762416,9.53333333 C11.5762416,10.6576709 10.6576709,11.5762416 9.53333333,11.5762416 C9.32208044,11.5762416 9.11502459,11.5436579 8.91801645,11.4810482 L8.7722357,11.428501 L8.75453333,11.4202 L8.03975134,12.1349307 C7.77857179,12.3960827 7.37929106,12.4349161 7.07701176,12.2514413 L6.99715358,12.1958909 L6.9286241,12.1348295 C6.64375373,11.8498854 6.62343361,11.4006096 6.86771995,11.0921453 L6.9287909,11.0235998 L7.64426667,10.3077333 L7.63703324,10.2916227 C7.57937498,10.1483804 7.53812767,9.99873395 7.51435515,9.84512199 L7.49644696,9.69027853 L7.49042503,9.53333333 C7.49042503,8.40899577 8.40899577,7.49042503 9.53333333,7.49042503 C9.74396197,7.49042503 9.95042178,7.5228162 10.1469147,7.5850679 L10.3092,7.64426667 L12.7080696,5.24570217 Z" id="Combined-Shape"></path>
                        </g>
                    </g>
                </g>
            </g>
        </g>
    </g>
</svg>