<?xml version="1.0" encoding="UTF-8"?>
<svg width="26px" height="26px" viewBox="0 0 26 26" version="1.1" xmlns="http://www.w3.org/2000/svg" xmlns:xlink="http://www.w3.org/1999/xlink">
    <title>ic/search</title>
    <g id="ic/search" stroke="none" stroke-width="1" fill="none" fill-rule="evenodd">
        <rect id="Rectangle" fill-opacity="0.01" fill="#FFFFFF" x="0" y="0" width="26" height="26"></rect>
        <path d="M7.33490684,7.33490684 C9.79596843,4.87384524 13.7521231,4.76760964 16.3417177,7.0930447 C18.8631651,9.35728411 19.2313821,13.1567345 17.2337646,15.8573835 L17.1253335,15.9965002 L20.5767003,19.4499954 C20.8179207,19.7022953 20.8634079,20.0706384 20.7146139,20.3652236 L20.6497121,20.471865 L20.5666134,20.5693674 C20.2899849,20.8459959 19.8597611,20.8771569 19.5475746,20.6595194 L19.4482568,20.5777543 L15.9965002,17.1253335 L15.8573835,17.2337646 C13.3070091,19.1202269 9.77671427,18.8968179 7.48482424,16.7425896 L7.27994391,16.5414366 L7.0930447,16.3417177 C4.76760964,13.7521231 4.87384524,9.79596843 7.33490684,7.33490684 Z M10.0888763,7.41385531 C8.24242526,8.17860661 7.03848814,9.98035924 7.03848814,11.9787972 C7.04145801,14.7062711 9.25157452,16.916689 11.97893,16.9200308 C13.9774859,16.9203032 15.7794027,15.7166118 16.5444058,13.8702651 C17.3094089,12.0239184 16.8868343,9.89854602 15.4737382,8.4852572 C14.0606421,7.07196837 11.9353273,6.649104 10.0888763,7.41385531 Z" id="Shape" fill="#42495E" fill-rule="nonzero"></path>
    </g>
</svg>