<?xml version="1.0" encoding="UTF-8"?>
<svg width="30px" height="30px" viewBox="0 0 30 30" version="1.1" xmlns="http://www.w3.org/2000/svg" xmlns:xlink="http://www.w3.org/1999/xlink">
    <title>468509E0-C39F-48AE-89E5-C0A7D1BD982F</title>
    <g id="Portofolio" stroke="none" stroke-width="1" fill="none" fill-rule="evenodd">
        <g id="01.1-Proyek-Bilateral" transform="translate(-281.000000, -297.000000)">
            <g id="Group-7" transform="translate(265.000000, 275.000000)">
                <g id="ic/notes" transform="translate(16.000000, 22.000000)">
                    <rect id="Rectangle" fill="#FFFFFF" x="0" y="0" width="30" height="30"></rect>
                    <g id="Group" transform="translate(7.500000, 4.000000)">
                        <path d="M1.55294118,17.6295322 C3.47474836,18.157241 5.51396405,18.157241 7.67058824,17.6295322 C9.68703611,17.1361234 11.7262518,16.1361234 13.7882353,14.6295322 L13.7882353,21.6295322 L1.55294118,21.6295322 L1.55294118,17.6295322 Z" id="Rectangle" fill-opacity="0.8" fill="#70BF4E"></path>
                        <path d="M12.8136054,-3.55271368e-15 L2.52195044,-3.55271368e-15 C1.24180571,-3.55271368e-15 0.179158781,0.971925035 0.0207097015,2.23150749 L0.00522664589,2.39737646 L8.3593263e-14,2.56569428 L8.3593263e-14,4.78179491 C8.3593263e-14,6.0611167 0.555023109,7.26913895 1.50340435,8.08329397 L1.68579604,8.23125366 L1.88210492,8.37317976 L6.23428588,11.3412384 L1.88206703,14.30802 C0.838602153,15.0194239 0.162956147,16.162091 0.0260330863,17.4177895 L0.00671489656,17.6544799 L8.3593263e-14,17.899379 L8.3593263e-14,20.1166497 C8.3593263e-14,21.4169391 0.954545297,22.5026381 2.19898823,22.6618712 L2.3560054,22.6768985 L2.52195044,22.6822548 L12.819226,22.6822548 C14.0993708,22.6822548 15.1620177,21.7104189 15.3204668,20.4508365 L15.3359498,20.2849675 L15.3411765,20.1166497 L15.3411765,17.899379 C15.3411765,16.6210701 14.786125,15.413099 13.8377082,14.5981625 L13.6553097,14.4500465 L13.4591284,14.3080329 L9.10689059,11.3412384 L13.459284,8.37303499 C14.5026387,7.66266485 15.1782285,6.52018279 15.3151443,5.26372377 L15.3344616,5.02687971 L15.3411765,4.78179491 L15.3411765,2.56569428 C15.3411765,1.26540488 14.3866312,0.179705867 13.1421882,0.0204727939 L12.9851711,0.00544549875 L12.8136054,-3.55271368e-15 Z M7.75167956,12.4132881 L7.85332719,12.4449555 L12.5545049,15.6497008 C13.1772362,16.0738798 13.592014,16.748887 13.7014215,17.5079655 L13.7223552,17.6993901 L13.7297008,17.899379 L13.7297008,20.1166497 C13.7297008,20.5559622 13.4397076,20.9285316 13.0331541,21.0334895 L12.9291877,21.0540375 L12.819226,21.0612357 L2.52195044,21.0612357 C2.10204651,21.0612357 1.74114627,20.7637597 1.63866846,20.3402125 L1.61854821,20.2317984 L1.61147567,20.1166497 L1.61147567,17.899379 C1.61147567,17.1306933 1.93030833,16.4024629 2.48432023,15.8899634 L2.62767436,15.7664344 L2.78545847,15.6497478 L7.48788099,12.4449434 L7.58951088,12.4132881 L7.75167956,12.4132881 Z M12.819226,1.62110829 C13.23913,1.62110829 13.6000302,1.91858428 13.702508,2.34213146 L13.7226283,2.45054554 L13.7297008,2.56569428 L13.7297008,4.78179491 C13.7297008,5.55144365 13.4108808,6.27908753 12.8560752,6.79136055 L12.7125054,6.91484159 L12.5546528,7.03137224 L7.85337445,10.2373563 L7.75170053,10.2690416 L7.58948992,10.2690416 L7.48783374,10.2373684 L2.78529485,7.03131449 C2.16301209,6.60667873 1.74892209,5.93221072 1.63970641,5.17324803 L1.61880998,4.98184274 L1.61147567,4.78179491 L1.61147567,2.56569428 C1.61147567,2.12638179 1.9014689,1.7538124 2.3080224,1.64885446 L2.41198874,1.62830646 L2.52195044,1.62110829 L12.819226,1.62110829 Z" id="Shape" fill="#1C3682" fill-rule="nonzero"></path>
                    </g>
                </g>
            </g>
        </g>
    </g>
</svg>