<?xml version="1.0" encoding="UTF-8"?>
<svg width="30px" height="30px" viewBox="0 0 30 30" version="1.1" xmlns="http://www.w3.org/2000/svg" xmlns:xlink="http://www.w3.org/1999/xlink">
    <title>A5732457-040B-4A81-AEDE-128D15266042</title>
    <g id="Portofolio" stroke="none" stroke-width="1" fill="none" fill-rule="evenodd">
        <g id="01.1-Proyek-Bilateral" transform="translate(-533.000000, -421.000000)">
            <g id="Group-7" transform="translate(265.000000, 275.000000)">
                <g id="Group-3-Copy-3" transform="translate(252.000000, 124.000000)">
                    <g id="ic/notes-copy-4" transform="translate(16.000000, 22.000000)">
                        <rect id="Rectangle" fill="#FFFFFF" x="0" y="0" width="30" height="30"></rect>
                        <path d="M22.5202299,20.2195206 C20.1086442,22.6311063 16.4968262,23.3017668 13.4076956,21.9936146 C13.1079183,21.866509 12.7658972,21.9126769 12.5113782,22.1067208 L12.4202887,22.1863694 L9.72996154,24.8766965 L9.55318485,24.9499198 L6.05040797,24.9499198 L6.05040797,21.447143 L6.1235935,21.2704041 L8.05714991,19.3354735 C10.0057819,19.7705135 11.9960243,19.889362 14.027877,19.692019 C18.6046926,19.2474974 22.2357017,17.2410021 24.9209043,13.6725333 C25.1187845,16.0729494 24.2703776,18.4693729 22.5202299,20.2195206 Z" id="Combined-Shape" fill="#8CCB72" fill-rule="nonzero"></path>
                        <path d="M20.5943503,5.04773554 C16.8347427,3.45713234 12.4409262,4.27315864 9.50678656,7.2072983 C6.84646046,9.86655899 5.91712302,13.736716 6.97701841,17.2649748 L7.07570753,17.575365 L7.12499112,17.7221861 L4.51378646,20.3333908 C4.37281989,20.4743574 4.28361256,20.6565204 4.25779252,20.8515055 L4.25,20.9698083 L4.25,25.8501238 C4.25,26.3091492 4.59308487,26.6877808 5.03720825,26.7433157 L5.15020399,26.7503278 L10.0293693,26.7503278 C10.229214,26.7503278 10.4210244,26.6846835 10.5768403,26.5648514 L10.6657868,26.4865414 L13.2781417,23.8741865 L13.4249628,23.9234701 C17.0344853,25.1350822 21.0542018,24.2312721 23.7930649,21.4935058 C26.7273635,18.5592073 27.5430835,14.1653268 25.9513176,10.4056828 C25.8354223,10.1307684 25.5888317,9.93064398 25.2958898,9.87313233 C25.0012873,9.81637405 24.6985153,9.90904432 24.4859815,10.1206766 L20.8949916,13.7116664 C19.8990513,14.7076068 18.2846018,14.7076068 17.2886614,13.7116664 C16.292721,12.7157261 16.292721,11.1012766 17.2886006,10.105397 L20.8795982,6.51324912 C21.0911502,6.30169718 21.1837468,5.99836332 21.1260723,5.70457788 C21.0765073,5.44809877 20.9173057,5.22708681 20.6936659,5.09741063 L20.5943503,5.04773554 Z M17.8165113,6.13223026 L18.1119009,6.17933784 L18.5839283,6.263249 L16.0157698,8.83140748 C14.3157074,10.5303821 14.3157074,13.2854703 16.0158263,14.9845015 C17.6600078,16.628683 20.2922579,16.6817211 22.0002271,15.1435745 L22.1678723,14.9844559 L24.7370725,12.4165807 L24.8209865,12.8884075 C25.2930575,15.5427394 24.4611832,18.2785673 22.5202299,20.2195206 C20.1086442,22.6311063 16.4968262,23.3017668 13.4076956,21.9936146 C13.1079183,21.866509 12.7658972,21.9126769 12.5113782,22.1067208 L12.4202887,22.1863694 L9.72996154,24.8766965 L9.55318485,24.9499198 L6.05040797,24.9499198 L6.05040797,21.447143 L6.1235935,21.2704041 L8.8139584,18.5788889 C9.07298974,18.3198576 9.14893589,17.9301876 9.00665564,17.5924963 C7.69874155,14.5027159 8.36892535,10.8919914 10.7796144,8.48014053 C12.5775885,6.68216645 15.0551448,5.83641385 17.5207414,6.09579064 L17.8165113,6.13223026 Z" id="Shape" fill="#1C3682" fill-rule="nonzero"></path>
                    </g>
                </g>
            </g>
        </g>
    </g>
</svg>